<svg width="70" height="73" viewBox="0 0 70 73" fill="none" xmlns="http://www.w3.org/2000/svg">
<path d="M12.7917 1.625C19.3858 1.625 24.75 7.70875 24.75 15.1875C24.75 22.6662 19.3858 28.75 12.7917 28.75C6.1975 28.75 0.833332 22.6662 0.833332 15.1875M69.1667 13.25L23.5542 51.9225M69.1667 59.6337L23.5542 20.9225M12.7917 71.375C15.9632 71.375 19.0049 69.9461 21.2475 67.4026C23.4901 64.8592 24.75 61.4095 24.75 57.8125C24.75 54.2155 23.4901 50.7658 21.2475 48.2224C19.0049 45.6789 15.9632 44.25 12.7917 44.25C9.62012 44.25 6.57847 45.6789 4.33585 48.2224C2.09322 50.7658 0.833332 54.2155 0.833332 57.8125C0.833332 61.4095 2.09322 64.8592 4.33585 67.4026C6.57847 69.9461 9.62012 71.375 12.7917 71.375Z" stroke="white" stroke-width="1.5" stroke-linecap="round" stroke-linejoin="round"/>
</svg>
