<svg width="224" height="207" viewBox="0 0 224 207" fill="none" xmlns="http://www.w3.org/2000/svg">
<path d="M112 4C52.3532 4 4 48.5476 4 103.5C4 158.452 52.3532 203 112 203C171.646 203 220 158.452 220 103.5C220 48.5476 171.646 4 112 4Z" stroke="black" stroke-width="7.956" stroke-linecap="round" stroke-linejoin="round"/>
<path d="M28.5269 166.64C28.5269 166.64 52.6003 138.325 112 138.325C171.4 138.325 195.474 166.64 195.474 166.64" stroke="black" stroke-width="7.956" stroke-linecap="round" stroke-linejoin="round"/>
<path d="M112 103.5C129.895 103.5 144.4 90.1362 144.4 73.65C144.4 57.1643 129.895 43.8 112 43.8C94.1056 43.8 79.6001 57.1643 79.6001 73.65C79.6001 90.1362 94.1056 103.5 112 103.5Z" stroke="black" stroke-width="7.956" stroke-linecap="round" stroke-linejoin="round"/>
</svg>
